<svg width="29" height="25" viewBox="0 0 29 25" fill="none" xmlns="http://www.w3.org/2000/svg"><path d="M28.157.952H.391v23.8h27.766V.952zm-1.765 1.894v4.672H2.155V2.846h24.237zM2.155 22.858V9.412h24.237v13.446H2.155z" fill="#3C3C3B"/><path d="M4.92 6.697c.78 0 1.412-.678 1.412-1.515 0-.837-.632-1.515-1.412-1.515-.78 0-1.412.678-1.412 1.515 0 .837.633 1.515 1.412 1.515zm3.648 0c.78 0 1.411-.678 1.411-1.515 0-.837-.632-1.515-1.411-1.515-.78 0-1.412.678-1.412 1.515 0 .837.632 1.515 1.412 1.515zm3.824 0c.78 0 1.411-.678 1.411-1.515 0-.837-.632-1.515-1.412-1.515-.78 0-1.411.678-1.411 1.515 0 .837.632 1.515 1.412 1.515zm-5.53 5.429l3.323 3.883-3.323 3.883 1.294 1.262 4.412-5.145-4.412-5.145-1.294 1.262zm14.912 6.692h-8.941v1.894h8.941v-1.894z" fill="#3C3C3B"/></svg>
