<svg width="31" height="27" viewBox="0 0 31 27" fill="none" xmlns="http://www.w3.org/2000/svg"><path d="M29.641 6.918H.91a.516.516 0 01-.51-.521V1.25C.4.962.628.73.91.73h28.73c.281 0 .51.233.51.521v5.147a.516.516 0 01-.51.521zM1.42 5.875h27.713V1.772H1.419v4.103z" fill="#3C3C3B" stroke="#3C3C3B" stroke-width=".8"/><path d="M27.893 26.512H2.658a.516.516 0 01-.51-.522V6.396c0-.288.228-.521.51-.521h25.235c.281 0 .51.233.51.521V25.99a.516.516 0 01-.51.522zM3.167 25.47h24.217V6.919H3.167v18.55z" fill="#3C3C3B" stroke="#3C3C3B" stroke-width=".8"/><path d="M19.085 12.95h-7.62c-1.057 0-1.917-.873-1.917-1.946 0-1.074.86-1.948 1.917-1.948h7.62c1.048 0 1.9.874 1.9 1.948 0 1.073-.852 1.947-1.9 1.947zm-7.62-2.85a.903.903 0 00-.899.904c0 .498.403.904.9.904h7.62c.477 0 .881-.414.881-.904 0-.49-.404-.904-.882-.904h-7.62zm9.962 13.23H9.123a.516.516 0 01-.509-.521v-6.155c0-.288.228-.521.51-.521h12.303c.282 0 .51.233.51.521v6.155a.516.516 0 01-.51.522zM9.633 22.288h11.285v-5.11H9.633v5.11z" fill="#3C3C3B" stroke="#3C3C3B" stroke-width=".8"/></svg>
