<svg width="29" height="37" viewBox="0 0 29 37" fill="none" xmlns="http://www.w3.org/2000/svg"><path d="M18.902 26.922h3.843c.896 0 1.689-.439 2.154-1.098a.636.636 0 00-.182-.907.702.702 0 00-.948.175 1.252 1.252 0 01-1.024.523h-3.843a.668.668 0 00-.682.654c0 .36.305.653.682.653z" fill="#3C3C3B"/><path d="M27.352 9.131c.755 0 1.366-.585 1.366-1.306V6.084c0-2.874-2.458-5.225-5.462-5.225H6.413C3.41.86.951 3.21.951 6.084v18.72c0 2.874 2.458 5.225 5.462 5.225h10.015v4.79h-2.276c-.501 0-.91.391-.91.87 0 .48.409.87.91.87h10.014c.501 0 .91-.39.91-.87 0-.479-.409-.87-.91-.87H21.89v-4.79h1.366c3.004 0 5.462-2.35 5.462-5.224v-1.742c0-.72-.611-1.306-1.366-1.306H21.89v-5.66h.455c.501 0 .91-.391.91-.87 0-.48-.409-.871-.91-.871h-6.372c-.501 0-.91.392-.91.87 0 .48.409.871.91.871h.455v5.66H9.6V9.131h17.752zM20.07 34.818h-1.82V30.03h1.82v4.79zm-1.82-13.323l1.165-.557a.534.534 0 00.254-.73.582.582 0 00-.763-.244l-.657.314v-.96l1.166-.557a.534.534 0 00.254-.73.582.582 0 00-.763-.243l-.657.313v-2.004h1.821v5.66h-1.82v-.262zM9.6 23.499h17.298v1.306c0 1.92-1.633 3.483-3.641 3.483H6.413c-2.007 0-3.641-1.563-3.641-3.483V6.084c0-1.92 1.634-3.483 3.641-3.483h16.843c2.008 0 3.641 1.562 3.641 3.483V7.39H9.6c-1.006 0-1.821.78-1.821 1.741v12.626c0 .962.815 1.742 1.82 1.742z" fill="#3C3C3B"/></svg>
