<svg width="28" height="28" viewBox="0 0 28 28" fill="none" xmlns="http://www.w3.org/2000/svg"><g clip-path="url(#clip0)"><path d="M22.604 9.698h-1.06V8.13a2.738 2.738 0 00-2.734-2.734H9.19A2.738 2.738 0 006.454 8.13v10.172c0 .604.49 1.094 1.094 1.094h1.04v3.208a1.094 1.094 0 002.188 0v-3.208h2.133v3.208a1.094 1.094 0 102.188 0v-3.208h1.07c.603 0 1.093-.49 1.093-1.094v-2.114h3.19c.604 0 1.094-.49 1.094-1.094v-3.209h1.06a3.212 3.212 0 013.207 3.209v7.51a3.212 3.212 0 01-3.208 3.209H5.392a3.208 3.208 0 01-3.205-3.205V5.392a3.208 3.208 0 013.205-3.205h17.216a3.209 3.209 0 013.204 3.209c0 .604.49 1.092 1.094 1.092.604 0 1.094-.492 1.094-1.096A5.398 5.398 0 0022.608 0H5.392A5.398 5.398 0 000 5.392v17.216A5.398 5.398 0 005.392 28h17.212A5.402 5.402 0 0028 22.604v-7.51a5.402 5.402 0 00-5.396-5.396zM19.358 14H11.86a1.094 1.094 0 100 2.188h3.213v1.02h-6.43V8.13c0-.301.245-.547.546-.547h9.622c.301 0 .547.246.547.547V14z" fill="#3C3C3B"/></g><defs><clipPath id="clip0"><path fill="#fff" d="M0 0h28v28H0z"/></clipPath></defs></svg>
