<svg width="14" height="14" viewBox="0 0 14 14" fill="none" xmlns="http://www.w3.org/2000/svg"><path d="M13.84 12.345L9.608 8.113a.547.547 0 00-.746-.025l-.597-.597A4.626 4.626 0 007.9 1.356a4.633 4.633 0 00-6.545 0 4.625 4.625 0 000 6.545 4.634 4.634 0 006.135.363l.597.598a.546.546 0 00.025.746l4.232 4.232c.214.213.56.213.773 0l.361-.36v-.001l.36-.36a.547.547 0 000-.774zM7.127 7.127a3.532 3.532 0 01-4.997 0 3.532 3.532 0 010-4.997 3.538 3.538 0 014.997 0 3.532 3.532 0 010 4.997z" fill="#fff"/></g><defs><path fill="#fff" d="M0 0h14v14H0z"/></clipPath></defs></svg>
