<svg width="35" height="24" viewBox="0 0 35 24" fill="none" xmlns="http://www.w3.org/2000/svg"><path d="M33.009 9.638v-6.89c0-.633-.503-1.148-1.124-1.148h-6.182c-.007 0-.014.005-.02.005a.54.54 0 00-.188.036l-.01.004-2.446 1a1.142 1.142 0 00-.707 1.067v.185h-2.81a.568.568 0 00-.562.574c0 .317.252.574.562.574h2.81v.186c-.002.47.279.893.707 1.066l2.103.86v2.481h-5.62a.568.568 0 00-.562-.574h-1.124V5.62a.568.568 0 00-.562-.574h-3.371a.568.568 0 00-.562.574v3.445h-1.124a.568.568 0 00-.562.574H7.72V7.916h1.124c.31 0 .562-.257.562-.574h1.124c.62 0 1.124-.514 1.124-1.148V2.749c0-.634-.503-1.149-1.124-1.149H9.407a.568.568 0 00-.562-.574H1.54c-.62 0-1.124.514-1.124 1.149v11.482c0 .014.007.026.008.04.001.014-.005.023-.003.036l1.06 8.113c.073.57.55.997 1.113.997h4.003c.621 0 1.124-.514 1.124-1.148h17.42c0 .634.504 1.148 1.125 1.148h5.689c.563 0 1.039-.426 1.113-.996l1.06-8.114c0-.013-.004-.024-.003-.036 0-.012.008-.026.008-.04v-2.87c0-.635-.504-1.149-1.124-1.149zM23.456 5.23V3.712l1.686-.689V5.92l-1.686-.689zm2.81 1.538v-4.02h5.619v6.89h-5.62v-2.87zm-.563 4.019h7.306v2.296H19.522v-2.296h6.181zm-.561 5.167H7.722V14.23h3.933a.57.57 0 00.562.575h6.743a.57.57 0 00.562-.575h5.62v1.723zm-10.677-9.76h2.247v2.87h-2.247v-2.87zm-.562 4.019h4.495v3.444h-5.62v-3.444h1.125zm-2.248.574v2.296H7.72v-2.296h3.934zM10.53 2.749v3.445H9.407V2.749h1.124zm-8.99-.574h6.743v4.593H3.226a.568.568 0 00-.562.574c0 .317.251.574.562.574h3.371v5.167H1.54V2.175zm5.057 19.52H2.594l-.974-7.464h4.977v7.464zm1.124-1.148v-3.445h17.42v3.445H7.722zm24.234 1.148h-5.69v-7.464h6.663l-.973 7.464z" fill="#3C3C3B" stroke="#3C3C3B" stroke-width=".5"/><path d="M23.456 18.25H12.779a.568.568 0 00-.562.575c0 .317.251.574.562.574h10.677c.31 0 .562-.257.562-.574a.568.568 0 00-.562-.575zm-12.925 0H9.407a.568.568 0 00-.562.575c0 .317.252.574.562.574h1.124c.31 0 .562-.257.562-.574a.568.568 0 00-.562-.575zm3.933-5.74h2.248c.31 0 .562-.257.562-.575a.568.568 0 00-.562-.574h-2.248a.568.568 0 00-.561.574c0 .318.251.575.561.575z" fill="#3C3C3B" stroke="#3C3C3B" stroke-width=".5"/></svg>
