<svg width="29" height="29" viewBox="0 0 29 29" fill="none" xmlns="http://www.w3.org/2000/svg"><path d="M26.493 20.35l-6.227-4.846c-.124-.68-.494-1.296-1.048-1.667l1.664-1.666c.432.092.863.154 1.264.154a5.52 5.52 0 001.572-.216c1.542-.401 2.836-1.42 3.638-2.808a6.101 6.101 0 00-.247-6.42.819.819 0 00-.678-.34c-.277 0-.493.155-.647.371L24.366 5.35l-1.758.124-.77-1.605 1.387-2.438a.788.788 0 000-.74.709.709 0 00-.617-.402 5.984 5.984 0 00-5.672 2.994 5.81 5.81 0 00-.647 4.29l-2.867 2.87-6.227-6.235v-1.42a.74.74 0 00-.432-.678L3.28.35a.752.752 0 00-.894.155L.629 2.265a.754.754 0 00-.154.894l1.757 3.488c.123.246.4.432.678.432h1.418l6.258 6.203-2.867 2.87a5.883 5.883 0 00-2.836.062c-1.541.4-2.836 1.42-3.638 2.808a6.101 6.101 0 00.247 6.42c.154.215.4.339.678.339s.493-.155.648-.37l1.418-2.439 1.757-.123.77 1.605-1.418 2.407a.788.788 0 000 .74c.124.217.37.402.617.402.154 0 .308.03.462.03a6.055 6.055 0 005.21-2.993 6.03 6.03 0 00.647-4.29l1.665-1.666c.37.555.986.957 1.665 1.049l4.84 6.234c.832 1.05 2.065 1.667 3.39 1.667a4.285 4.285 0 004.316-4.29c0-1.327-.616-2.562-1.664-3.395zM18.262 4.053c.616-1.08 1.695-1.852 2.898-2.13l-.894 1.544a.787.787 0 000 .74l1.202 2.408a.748.748 0 00.74.432l2.682-.185c.246-.031.493-.155.616-.37l.894-1.544c.37 1.173.247 2.5-.4 3.58a4.411 4.411 0 01-2.713 2.099 4.499 4.499 0 01-3.391-.432 4.414 4.414 0 01-2.097-2.716c-.277-1.204-.123-2.407.463-3.426zm-1.387 5.092a6.161 6.161 0 002.28 2.346c.032.03.093.061.124.061l-2.035 2.037-.339.34-2.404-2.407 2.374-2.377zm-6.566 15.122c-.617 1.08-1.696 1.852-2.898 2.13l.894-1.543c.123-.216.123-.494.03-.74l-1.202-2.408a.739.739 0 00-.678-.432h-.062l-2.682.185c-.246.031-.493.154-.616.37L2.2 23.374c-.37-1.173-.247-2.5.4-3.58a4.41 4.41 0 012.713-2.099 4.5 4.5 0 013.391.432c2.097 1.235 2.836 3.981 1.604 6.142zm3.421-7.16l-2.034 2.037A5.946 5.946 0 009.414 16.8c-.03-.03-.092-.03-.123-.062l2.374-2.376 2.404 2.407-.339.34zM5.222 5.722a.742.742 0 00-.555-.216H3.403L2.108 2.943l.956-.957 2.559 1.297v1.265c0 .216.092.401.216.555l9.987 9.907-.678.679-9.926-9.968zm9.865 12.19l2.959-2.963c.308.093.555.34.647.648l-2.959 2.963c-.308-.062-.555-.309-.647-.648zm8.785 8.58a2.762 2.762 0 01-2.158-1.05l-4.654-5.987 2.527-2.53 5.98 4.629a2.72 2.72 0 011.049 2.16c0 1.543-1.233 2.777-2.744 2.777z" fill="#3C3C3B" stroke="#3C3C3B" stroke-width=".2"/></svg>
