<svg width="29" height="29" viewBox="0 0 29 29" fill="none" xmlns="http://www.w3.org/2000/svg"><path d="M14.279.871C6.622.871.39 7.107.39 14.77c0 7.663 6.23 13.87 13.888 13.87 7.657 0 13.878-6.207 13.878-13.87 0-7.662-6.22-13.898-13.878-13.898zm0 1.253c6.975 0 12.607 5.665 12.607 12.645 0 6.98-5.632 12.616-12.607 12.616A12.603 12.603 0 011.662 14.77c0-6.98 5.641-12.645 12.617-12.645zm-.07 2.328a.63.63 0 00-.561.64v4.311a.633.633 0 00.874.592.631.631 0 00.388-.592v-4.31a.63.63 0 00-.7-.641zm2.15 2.308a.63.63 0 00-.05 1.253 7.039 7.039 0 015.008 6.746c0 3.9-3.142 7.043-7.038 7.043A7.028 7.028 0 017.24 14.76a7.038 7.038 0 015.007-6.746.63.63 0 00-.256-1.233.63.63 0 00-.099.03c-3.42 1.028-5.914 4.2-5.914 7.95 0 4.58 3.722 8.305 8.3 8.305 4.578 0 8.3-3.725 8.3-8.306 0-3.75-2.495-6.921-5.915-7.95a.63.63 0 00-.305-.05z" fill="#3C3C3B" stroke="#3C3C3B" stroke-width=".5"/></svg>
