<svg width="25" height="23" viewBox="0 0 25 23" fill="none" xmlns="http://www.w3.org/2000/svg"><path fill-rule="evenodd" clip-rule="evenodd" d="M10.882 15.183c-.09.252-.235.483-.426.678a1.97 1.97 0 01-.682.45 2.05 2.05 0 01-1.62-.052L4.1 20.113c.206.397.257.85.144 1.28a1.869 1.869 0 01-.761 1.063 2.036 2.036 0 01-2.53-.197 1.83 1.83 0 01-.569-1.168c-.038-.441.09-.88.36-1.24.272-.36.668-.617 1.119-.725.45-.107.927-.059 1.344.137l4.048-3.853a1.8 1.8 0 01-.089-1.493 1.86 1.86 0 01.427-.647 1.97 1.97 0 01.663-.43 2.052 2.052 0 011.571.027c.246.107.466.261.646.453s.317.417.402.662h2.957c.098-.273.26-.52.474-.723.214-.203.475-.357.762-.448v-2.804a1.996 1.996 0 01-.71-.375 1.883 1.883 0 01-.49-.614 1.797 1.797 0 01.416-2.147c.197-.18.43-.32.687-.409a2.056 2.056 0 011.583.1L20.611 2.7a1.785 1.785 0 01-.144-1.28c.112-.428.381-.806.759-1.064a2.035 2.035 0 012.529.195c.329.312.53.725.57 1.166a1.8 1.8 0 01-.359 1.24c-.27.36-.665.618-1.116.726-.45.108-.927.06-1.344-.134l-4.07 3.874a1.798 1.798 0 01.044 1.515c-.104.241-.26.459-.457.64a2 2 0 01-.69.409v2.83c.315.103.598.281.82.517.224.236.38.523.455.832.075.31.066.632-.027.938a1.854 1.854 0 01-.5.807 1.989 1.989 0 01-.85.474 2.06 2.06 0 01-.986.021 2 2 0 01-.872-.435 1.865 1.865 0 01-.54-.785l-2.95-.004z" fill="#95B03C"/><path fill-rule="evenodd" clip-rule="evenodd" d="M4.303 1.87c0 .37-.115.73-.331 1.038a1.946 1.946 0 01-.881.688 2.056 2.056 0 01-1.135.107A1.997 1.997 0 01.95 3.19a1.843 1.843 0 01-.537-.957 1.786 1.786 0 01.111-1.08c.15-.342.4-.634.724-.839A2.035 2.035 0 012.339 0c.52 0 1.02.197 1.389.548.368.35.575.826.575 1.321zm0 6.355c0 .37-.115.731-.331 1.039a1.946 1.946 0 01-.882.688 2.056 2.056 0 01-1.134.106A1.997 1.997 0 01.95 9.546a1.843 1.843 0 01-.537-.957 1.786 1.786 0 01.112-1.08c.149-.342.4-.633.723-.839a2.036 2.036 0 011.092-.314c.52 0 1.02.197 1.388.548.368.35.575.825.575 1.32zm6.678 0c0 .37-.115.731-.33 1.038a1.946 1.946 0 01-.882.689 2.057 2.057 0 01-1.135.106 1.996 1.996 0 01-1.006-.511 1.843 1.843 0 01-.537-.957 1.786 1.786 0 01.112-1.08c.148-.342.4-.634.723-.84a2.035 2.035 0 011.091-.314c.52 0 1.02.197 1.389.547.368.35.575.826.575 1.322zm0-6.356c0 .37-.115.731-.33 1.039a1.946 1.946 0 01-.882.688 2.056 2.056 0 01-1.135.107 1.997 1.997 0 01-1.006-.512 1.843 1.843 0 01-.537-.957 1.786 1.786 0 01.112-1.08c.148-.342.4-.634.723-.839A2.035 2.035 0 019.017 0c.52 0 1.02.197 1.389.548.368.35.575.826.575 1.321zm6.65 0c0 .37-.115.731-.33 1.039a1.946 1.946 0 01-.881.688 2.056 2.056 0 01-1.134.107 2.007 2.007 0 01-1.006-.51 1.843 1.843 0 01-.538-.957 1.785 1.785 0 01.11-1.08 1.9 1.9 0 01.722-.84 2.035 2.035 0 012.479.232c.368.35.575.826.575 1.321h.003zm6.709 6.356c0 .37-.115.731-.331 1.039a1.947 1.947 0 01-.882.688 2.056 2.056 0 01-1.134.106 1.997 1.997 0 01-1.006-.512 1.844 1.844 0 01-.537-.957 1.786 1.786 0 01.112-1.08c.148-.342.4-.633.723-.839a2.036 2.036 0 012.478.234c.367.351.573.826.573 1.32h.004zm0 6.356c0 .37-.115.732-.331 1.039a1.947 1.947 0 01-.882.688 2.056 2.056 0 01-1.134.107 1.997 1.997 0 01-1.006-.512 1.844 1.844 0 01-.537-.958 1.785 1.785 0 01.112-1.08c.148-.341.4-.633.723-.838a2.036 2.036 0 012.478.234c.368.351.574.827.573 1.322l.004-.002zm0 6.357c0 .37-.115.73-.33 1.038a1.946 1.946 0 01-.88.69c-.36.141-.754.179-1.135.107a1.996 1.996 0 01-1.006-.51 1.844 1.844 0 01-.539-.957 1.786 1.786 0 01.11-1.08c.149-.342.4-.634.723-.84a2.036 2.036 0 012.478.23c.368.351.575.826.576 1.322h.003zm-6.709 0c0 .37-.114.73-.33 1.038a1.945 1.945 0 01-.88.69 2.06 2.06 0 01-1.134.107 1.998 1.998 0 01-1.007-.51 1.844 1.844 0 01-.538-.957 1.785 1.785 0 01.11-1.08c.148-.341.4-.633.722-.84a2.037 2.037 0 012.478.23c.369.351.576.826.576 1.322h.003zm-6.65 0c0 .37-.114.731-.33 1.039a1.945 1.945 0 01-.881.689 2.056 2.056 0 01-1.135.107 1.997 1.997 0 01-1.006-.511 1.843 1.843 0 01-.538-.957 1.786 1.786 0 01.111-1.08 1.9 1.9 0 01.724-.84 2.035 2.035 0 011.091-.315c.52 0 1.02.197 1.388.547.368.35.575.825.576 1.32zm-6.678-6.355c0 .37-.115.731-.331 1.038a1.947 1.947 0 01-.882.689 2.056 2.056 0 01-1.134.106 1.997 1.997 0 01-1.006-.512 1.843 1.843 0 01-.537-.957 1.786 1.786 0 01.112-1.08c.149-.342.4-.634.723-.839a2.035 2.035 0 011.092-.314c.52 0 1.02.197 1.388.548.368.35.575.825.575 1.32z" fill="#3C3C3B"/></svg>
