<svg width="21" height="35" viewBox="0 0 21 35" fill="none" xmlns="http://www.w3.org/2000/svg"><path d="M17.547 14.877c1.454 0 2.644 1.084 2.644 2.408v14.45c0 1.324-1.19 2.409-2.644 2.409H3.003c-1.454 0-2.645-1.085-2.645-2.409v-14.45c0-1.324 1.191-2.408 2.645-2.408h14.544zm0 1.204H3.003c-.744 0-1.323.527-1.323 1.204v14.45c0 .678.579 1.205 1.323 1.205h14.544c.744 0 1.322-.527 1.322-1.204v-14.45c0-.678-.578-1.205-1.322-1.205z" fill="#3C3C3B" stroke="#3C3C3B" stroke-width=".5"/><path fill-rule="evenodd" clip-rule="evenodd" d="M14.902 11.867c.723 0 1.323.546 1.323 1.204v2.409h-1.323v-2.41H5.647v2.41H4.325v-2.41c0-.657.6-1.204 1.322-1.204h9.255z" fill="#3C3C3B" stroke="#3C3C3B" stroke-width=".5"/><path fill-rule="evenodd" clip-rule="evenodd" d="M13.58 11.867v3.612h-1.322v-3.612h1.322zm-2.645 0v3.612H9.613v-3.612h1.322zm-2.643 0v3.612H6.97v-3.612h1.322z" fill="#3C3C3B" stroke="#3C3C3B" stroke-width=".5"/><path fill-rule="evenodd" clip-rule="evenodd" d="M11.597.427a.7.7 0 01.443.154c.121.1.198.236.215.384l1.323 11.44-1.315.127-1.26-10.901H9.549l-1.26 10.9-1.315-.126L8.296.965a.586.586 0 01.215-.383.699.699 0 01.441-.155h2.645z" fill="#3C3C3B" stroke="#3C3C3B" stroke-width=".5"/><path d="M10.298 19.092a.71.71 0 01.295.073c.09.044.168.108.227.185 0 0 .84 1.106 1.681 2.427.421.661.844 1.378 1.17 2.053.326.676.57 1.287.57 1.885 0 1.988-1.783 3.612-3.966 3.612-2.183 0-3.967-1.625-3.967-3.613 0-.597.248-1.208.574-1.883.325-.676.749-1.393 1.17-2.054.841-1.321 1.68-2.427 1.68-2.427a.647.647 0 01.247-.195.715.715 0 01.32-.063zm-.02 1.728c-.302.413-.543.714-1.083 1.562a19.8 19.8 0 00-1.103 1.933c-.294.61-.462 1.166-.462 1.4 0 1.337 1.176 2.408 2.644 2.408 1.469 0 2.645-1.071 2.645-2.408 0-.234-.166-.79-.46-1.4a19.794 19.794 0 00-1.102-1.933c-.54-.847-.778-1.149-1.08-1.562h0z" fill="#3C3C3B" stroke="#3C3C3B" stroke-width=".5"/></svg>
