<svg width="36" height="35" viewBox="0 0 36 35" fill="none" xmlns="http://www.w3.org/2000/svg"><path d="M18.034 28.125a2.248 2.248 0 100 4.496 2.248 2.248 0 000-4.497zm0 3.372a1.123 1.123 0 110-2.247 1.123 1.123 0 010 2.247zM29.273 20.82a3.372 3.372 0 100-6.744 3.372 3.372 0 000 6.743zm0-5.622a2.248 2.248 0 110 4.497 2.248 2.248 0 010-4.497z" fill="#3C3C3B" stroke="#3C3C3B" stroke-width=".4"/><path d="M34.892 17.446a5.626 5.626 0 00-5.62-5.62c-.105 0-.208.01-.313.016L18.202 5.567A8.986 8.986 0 108.086 18.318l6.159 11.011a3.93 3.93 0 107.713 1.237l7.867-7.528a5.627 5.627 0 005.067-5.592zM16.718 26.67L12.1 18.355a8.997 8.997 0 007.034-8.336l6.081 3.55a5.602 5.602 0 00.797 8.448l-5.527 5.286a3.896 3.896 0 00-3.77-.634h.002zm10.316-4.07a5.58 5.58 0 001.236.372l-6.489 6.208a3.946 3.946 0 00-.525-1.054l5.778-5.527zm6.735-5.153a4.497 4.497 0 11-8.994 0 4.497 4.497 0 018.994 0zm-6.454-5.26c-.42.154-.82.359-1.193.61l-7.01-4.09a8.846 8.846 0 00-.274-1.466l8.477 4.945zM2.298 9.577a7.869 7.869 0 117.868 7.868 7.876 7.876 0 01-7.868-7.868zm7.2 8.959c.221.016.442.033.668.033.252 0 .5-.017.748-.037l4.81 8.662c-.341.248-.64.55-.886.892l-5.34-9.55zm8.535 14.646a2.81 2.81 0 110-5.619 2.81 2.81 0 010 5.619z" fill="#3C3C3B" stroke="#3C3C3B" stroke-width=".4"/><path d="M16.91 9.578a6.744 6.744 0 10-6.744 6.744 6.75 6.75 0 006.744-6.744zm-12.364 0a5.62 5.62 0 115.62 5.62 5.625 5.625 0 01-5.62-5.62z" fill="#3C3C3B" stroke="#3C3C3B" stroke-width=".4"/><path d="M11.853 9.579a1.687 1.687 0 10-3.373 0 1.687 1.687 0 003.373 0zm-1.686.562a.562.562 0 110-1.124.562.562 0 010 1.124z" fill="#3C3C3B" stroke="#3C3C3B" stroke-width=".4"/><path d="M11.853 6.207a1.687 1.687 0 10-3.373 0 1.687 1.687 0 003.373 0zm-1.686.562a.562.562 0 110-1.124.562.562 0 010 1.124zM6.795 7.892a1.686 1.686 0 100 3.372 1.686 1.686 0 000-3.372zm0 2.249a.562.562 0 110-1.124.562.562 0 010 1.124zm5.057 2.809a1.686 1.686 0 10-3.373 0 1.686 1.686 0 003.373 0zm-2.248 0a.563.563 0 111.125 0 .563.563 0 01-1.125 0zm3.934-1.686a1.686 1.686 0 100-3.372 1.686 1.686 0 000 3.372zm0-2.249a.562.562 0 110 1.125.562.562 0 010-1.125zm7.305-2.808h1.125a2.815 2.815 0 00-2.81-2.81V4.52a1.686 1.686 0 011.685 1.686z" fill="#3C3C3B" stroke="#3C3C3B" stroke-width=".4"/><path d="M23.092 6.208h1.124a5.065 5.065 0 00-5.059-5.059v1.124a3.94 3.94 0 013.935 3.935zM6.232 18.57H5.108a2.815 2.815 0 002.81 2.811v-1.124a1.686 1.686 0 01-1.686-1.687z" fill="#3C3C3B" stroke="#3C3C3B" stroke-width=".4"/><path d="M3.984 18.57H2.86a5.065 5.065 0 005.058 5.06v-1.125a3.939 3.939 0 01-3.934-3.935z" fill="#3C3C3B" stroke="#3C3C3B" stroke-width=".4"/></svg>
