<svg width="31" height="28" viewBox="0 0 31 28" viewBox="0 0 31 28" fill="none" xmlns="http://www.w3.org/2000/svg"><path d="M21.56 27.369H3.382a.621.621 0 01-.62-.623v-2c0-1.77 1.433-3.21 3.196-3.21H19.08a3.11 3.11 0 013.099 3.112v2.098a.621.621 0 01-.62.623zM4.001 26.124h16.94v-1.476c0-1.03-.835-1.867-1.86-1.867H5.958A1.963 1.963 0 004 24.746v1.378z" fill="#3C3C3B" stroke="#3C3C3B" stroke-width=".5"/><path d="M9.45 22.78a.62.62 0 01-.538-.31L1.685 9.894a.624.624 0 01.226-.85l.074-.043a.618.618 0 01.932.545l7.07 12.301a.624.624 0 01-.537.934zm7.078 0a.619.619 0 01-.537-.31L8.38 9.234a.624.624 0 01.227-.85.617.617 0 01.846.228l7.611 13.235a.624.624 0 01-.536.934z" fill="#3C3C3B" stroke="#3C3C3B" stroke-width=".5"/><path d="M5.036 11.258a4.571 4.571 0 01-3.165-1.266A4.623 4.623 0 01.4 6.608c0-2.564 2.08-4.65 4.635-4.65A4.63 4.63 0 019.101 4.38c.37.67.565 1.441.565 2.228 0 .743-.167 1.445-.497 2.085a3.452 3.452 0 01-.368.61 4.594 4.594 0 01-3.765 1.955zm0-8.055A3.405 3.405 0 001.64 6.608c0 .94.392 1.841 1.077 2.475.633.602 1.454.93 2.32.93A3.37 3.37 0 007.8 8.567c.103-.135.18-.265.26-.43a3.29 3.29 0 00.366-1.529c0-.576-.143-1.14-.412-1.628a3.393 3.393 0 00-2.979-1.777z" fill="#3C3C3B" stroke="#3C3C3B" stroke-width=".5"/><path d="M14.854 5.301H8.557a.621.621 0 01-.62-.623c0-.344.278-.623.62-.623h6.297c.342 0 .62.28.62.623a.621.621 0 01-.62.623zm0 4.245H8.917a.621.621 0 01-.62-.623.62.62 0 01.62-.622h5.937a.621.621 0 010 1.246z" fill="#3C3C3B" stroke="#3C3C3B" stroke-width=".5"/><path d="M18.436 10.865h-2.938c-.697 0-1.264-.57-1.264-1.27V3.961c0-.703.567-1.276 1.264-1.276h2.938A1.274 1.274 0 0119.7 3.961v5.634c0 .254-.073.496-.213.701a1.231 1.231 0 01-1.05.57zM15.498 3.93l-.024 5.665 2.962.025.025-5.659c0-.013 0-.018-.015-.028l-2.948-.003z" fill="#3C3C3B" stroke="#3C3C3B" stroke-width=".5"/><path d="M29.493 4.498a.617.617 0 01-.219-.04l-6.72-2.554-3.463 2.04a.618.618 0 01-.848-.221.624.624 0 01.22-.852l3.72-2.192a.62.62 0 01.532-.045l6.997 2.658a.624.624 0 01-.219 1.206zm-6.923 8.123a.617.617 0 01-.306-.081l-3.595-2.055a.624.624 0 01-.232-.849.619.619 0 01.845-.233l3.338 1.908 6.685-2.625a.623.623 0 01.452 1.16l-6.96 2.732a.618.618 0 01-.227.043zM5.033 8.805a2.195 2.195 0 01-2.187-2.197c0-1.212.981-2.197 2.187-2.197s2.187.985 2.187 2.197a2.194 2.194 0 01-2.187 2.197zm0-3.15a.951.951 0 000 1.905.951.951 0 000-1.904z" fill="#3C3C3B" stroke="#3C3C3B" stroke-width=".5"/></svg>
