<svg width="40" height="24" viewBox="0 0 40 24" fill="none" xmlns="http://www.w3.org/2000/svg"><path d="M15.911 12.787c0-.36.29-.652.645-.652h11.602c.357 0 .645.292.645.652 0 .36-.288.652-.645.652H16.556a.648.648 0 01-.645-.652zm.645-7.168h11.602a.648.648 0 00.645-.652.648.648 0 00-.645-.652H16.556a.648.648 0 00-.645.652c0 .36.29.652.645.652zm0 5.213h11.602a.648.648 0 00.645-.652.648.648 0 00-.645-.651H16.556a.648.648 0 00-.645.651c0 .36.29.652.645.652zm0-2.607h11.602a.648.648 0 00.645-.651.648.648 0 00-.645-.652H16.556a.648.648 0 00-.645.652c0 .36.29.651.645.651zm22.56-3.91v11.73c0 1.434-1.16 2.607-2.578 2.607h-8.38l.645 1.303h1.29v3.259h-15.47v-3.258h1.288l.645-1.304h-2.578a1.3 1.3 0 01-1.29 1.303h-.644a1.3 1.3 0 01-1.29-1.303H8.822L6.243 17.35v-3.91H3.664v-1.304H.441v-3.91h3.223V6.922h2.579v-3.91L8.82 1.709h1.934a1.3 1.3 0 011.29-1.304h.644a1.3 1.3 0 011.29 1.304h22.56c1.418 0 2.578 1.173 2.578 2.606zM3.664 9.53H1.731v1.303h1.933V9.53zm2.579-1.304h-1.29v3.91h1.29v-3.91zm4.512-5.213h-1.63l-1.593.805v12.725l1.289.652v-5.711c0-.18.144-.326.322-.326.178 0 .323.146.323.326v5.865h1.289V3.012zm1.933-1.303h-.644v16.943h.644V1.71zm15.148 19.55l-.967-2.607v-2.607h-9.024v2.607l-.967 2.607h-.967v.651h12.892v-.651h-.967zm2.9-18.247H13.979V17.35h2.578v-2.607h11.602v2.607h2.578V3.012zm7.091 1.303c0-.718-.578-1.303-1.289-1.303h-4.512V17.35h3.867v-4.562c0-.18.145-.326.323-.326.178 0 .322.146.322.326v4.562c.711 0 1.29-.585 1.29-1.303V4.316zm-1.611 4.888a.324.324 0 00-.322.326v1.303c0 .18.144.326.322.326a.324.324 0 00.322-.326V9.53a.324.324 0 00-.322-.326z" fill="#3C3C3B" stroke="#3C3C3B" stroke-width=".3"/></svg>
