<svg width="30" height="31" viewBox="0 0 30 31" fill="none" xmlns="http://www.w3.org/2000/svg"><path d="M4.53 6.913h3.05v1.863H6.313a.454.454 0 00-.455.453v3.215c0 .25.203.453.455.453h2.036v1.87c0 .25.203.453.455.453h2.237v4.898c0 .125.051.244.142.33l3.636 3.433v3.837h.91V23.88l3.636-3.434a.452.452 0 00.142-.329V15.22h2.238a.454.454 0 00.455-.453v-1.87h2.036a.454.454 0 00.455-.453V9.229a.454.454 0 00-.455-.453h-1.267V6.913h3.05a.455.455 0 00.402-.242l2.691-5.07-.804-.423-2.564 4.829H4.804l-2.563-4.83-.805.424 2.692 5.07a.455.455 0 00.402.242zm2.238 2.769h1.795v2.309H6.768V9.68zm14.307 2.309h-1.592V9.68h1.592v2.31zm-2.502 0H16.98V9.68h1.593v2.31zm-2.503 0h-1.592V9.68h1.592v2.31zm-2.502 0h-1.592V9.68h1.592v2.31zm-2.502 0H9.474V9.68h1.592v2.31zm7.53 7.933l-3.322 3.137-3.322-3.137V15.22h6.645v4.704zm2.694-5.61H9.258v-1.417h12.03v1.417zm2.49-2.323h-1.795V9.68h1.796v2.31zm-1.72-5.078v1.863H8.49V6.913h13.57zm7.097 22.117H1.391v.907h27.766v-.907z" fill="#3C3C3B" stroke="#3C3C3B" stroke-width=".8"/></svg>
