<svg width="29" height="29" viewBox="0 0 29 29" fill="none" xmlns="http://www.w3.org/2000/svg"><path d="M14.273.7c7.664 0 13.884 6.22 13.884 13.883 0 7.663-6.22 13.883-13.884 13.883-7.662 0-13.882-6.22-13.882-13.883C.39 6.919 6.61.699 14.273.699zm11.998 14.803h-2.158v-1.851h2.157a11.98 11.98 0 00-2.855-6.9l-1.532 1.53-1.302-1.307 1.53-1.528a11.988 11.988 0 00-6.912-2.863v2.169h-1.85V2.584c-2.63.2-5.023 1.242-6.907 2.858l1.533 1.533-1.3 1.308-1.537-1.536a11.986 11.986 0 00-2.861 6.905h2.167v1.851H2.276c.071.946.252 1.86.529 2.73h22.938c.277-.87.457-1.784.528-2.73zm-9.653-3.302c3.14 3.088-1.581 7.868-4.711 4.79-1.006-.99-3.016-5.454-4.022-7.44L9.11 8.302c2.004.972 6.5 2.909 7.507 3.898zm-1.298 1.32c-.326-.32-2.647-1.452-4.56-2.37.95 1.899 2.12 4.2 2.444 4.521 1.396 1.373 3.552-.739 2.115-2.151zm-2.183 1.062a1.135 1.135 0 112.27-.002 1.135 1.135 0 01-2.27.002zm11.84 5.501H3.57a12.01 12.01 0 0010.703 6.531 12.01 12.01 0 0010.704-6.531z" fill="#3C3C3B"/></svg>
