<svg width="31" height="31" viewBox="0 0 31 31" fill="none" xmlns="http://www.w3.org/2000/svg"><path d="M18.406 9.688h5.813a.969.969 0 00.968-.97v-2.42a.969.969 0 00-.283-.685L23.45 4.159a.969.969 0 00-.685-.284h-2.907a.969.969 0 00-.685.284L17.72 5.612a.969.969 0 00-.284.685v2.422a.97.97 0 00.97.969zm.969-2.99l.886-.886h2.103l.886.886V7.75h-3.875V6.698zm-.969 10.74h5.813a.969.969 0 00.968-.97v-2.421a.969.969 0 00-.283-.685l-1.453-1.453a.969.969 0 00-.685-.284h-2.907a.969.969 0 00-.685.284l-1.453 1.453a.97.97 0 00-.284.685v2.422c0 .535.434.968.97.968zm.969-2.99l.886-.886h2.103l.886.886V15.5h-3.875v-1.052zM3.877 9.679C3.873 12.912 6.505 15.5 9.688 15.5a5.817 5.817 0 005.814-5.804c.004-3.236-2.632-5.821-5.813-5.821a5.817 5.817 0 00-5.812 5.804zm2.367 1.78c1.15.33 2.137.158 3.159-.43.381.698.456 1.366-.219 2.5a3.883 3.883 0 01-2.94-2.07zm5.217 1.673c.384-1.333.04-2.341-.43-3.158.698-.381 1.366-.457 2.5.219a3.883 3.883 0 01-2.07 2.94zm1.673-5.216c-1.333-.384-2.341-.04-3.158.43-.382-.698-.457-1.366.218-2.5a3.883 3.883 0 012.94 2.07zM7.918 6.243c-.384 1.333-.04 2.341.43 3.158-.698.381-1.367.457-2.5-.219a3.883 3.883 0 012.07-2.94z" fill="#3C3C3B"/><path d="M30.031 28.094h-1.937v-1.938h1.937a.969.969 0 100-1.937h-1.937a.969.969 0 00-.969-.969h-1.877a2.91 2.91 0 00-2.906 2.91c-.077-.005.666-.004-14.108-.004a2.425 2.425 0 01-2.421-2.422v-2.422h22.28a.969.969 0 00.97-.968V.969a.969.969 0 00-.97-.969H.97A.969.969 0 000 .969v19.375c0 .535.434.968.969.968h2.906v2.422a4.364 4.364 0 004.36 4.36c12.3 0 14.107-.007 14.107 0A2.91 2.91 0 0025.248 31h1.877a.969.969 0 00.969-.969h1.937a.969.969 0 100-1.937zM1.938 19.375V1.937h25.187v17.438H5.812v-1.938a.969.969 0 10-1.937 0v1.938H1.937zm23.31 9.688a.97.97 0 01-.969-.97v-1.937a.97.97 0 01.969-.968h.908v3.875h-.908z" fill="#3C3C3B"/></svg>
