<svg width="29" height="28" viewBox="0 0 29 28" fill="none" xmlns="http://www.w3.org/2000/svg"><path d="M14.274 27.767C6.606 27.767.391 21.551.391 13.884.39 6.215 6.606 0 14.274 0c7.668 0 13.883 6.216 13.883 13.883 0 7.668-6.215 13.884-13.883 13.884zm0-1.633c6.765 0 12.25-5.485 12.25-12.25 0-6.766-5.485-12.25-12.25-12.25-6.766 0-12.25 5.484-12.25 12.25 0 6.765 5.484 12.25 12.25 12.25zm0-7.35a4.9 4.9 0 110-9.8 4.9 4.9 0 010 9.8zm0-1.634a3.267 3.267 0 100-6.533 3.267 3.267 0 000 6.533zm0-9.392a2.45 2.45 0 110-4.9 2.45 2.45 0 010 4.9zm0-1.633a.817.817 0 100-1.633.817.817 0 000 1.633zm4.331-.037a2.45 2.45 0 113.465 3.464 2.45 2.45 0 01-3.465-3.464zm2.31 2.31a.817.817 0 10-1.155-1.155.817.817 0 001.155 1.154zm-.516 5.486a2.45 2.45 0 114.9 0 2.45 2.45 0 01-4.9 0zm1.633 0a.817.817 0 101.634 0 .817.817 0 00-1.634 0zm-3.427 4.33a2.45 2.45 0 113.465 3.465 2.45 2.45 0 01-3.465-3.464zm1.155 1.156a.817.817 0 101.155 1.154.817.817 0 00-1.155-1.154zm-5.486.639a2.45 2.45 0 110 4.9 2.45 2.45 0 010-4.9zm0 1.633a.817.817 0 100 1.633.817.817 0 000-1.633zm-4.331.038a2.45 2.45 0 11-3.465-3.465 2.45 2.45 0 013.465 3.465zm-2.31-2.31a.817.817 0 101.155 1.154.817.817 0 00-1.155-1.154zm.516-5.487a2.45 2.45 0 11-4.9 0 2.45 2.45 0 014.9 0zm-1.633 0a.817.817 0 10-1.634 0 .817.817 0 001.634 0zm-.038-4.33a2.45 2.45 0 113.465-3.465 2.45 2.45 0 01-3.465 3.464zm2.31-2.31a.817.817 0 10-1.155 1.154.817.817 0 001.155-1.154z" fill="#3C3C3B"/></svg>
