<svg width="44" height="44" viewBox="0 0 44 44" fill="none" xmlns="http://www.w3.org/2000/svg"><path d="M5.464 26.848V16.815h33.42v10.033H5.463zm.958-9.073v8.113h31.503v-8.113H6.422z" fill="#3C3C3B" stroke="#3C3C3B" stroke-width=".7"/><path d="M10.087 17.297l-.958-.004v5.08l.958.005v-5.081zm4.188 0l-.957-.004v5.08l.957.005v-5.081zm4.19.001l-.958-.004v5.08l.957.005v-5.081zm4.187-.001l-.957-.004v5.08l.957.005v-5.081zm4.189.001l-.958-.004v5.081l.958.004V17.3zm4.189 0l-.958-.004v5.08l.957.005v-5.081zm4.188 0l-.958-.004v5.08l.958.005v-5.081z" fill="#3C3C3B" stroke="#3C3C3B" stroke-width=".7"/></svg>
