<svg width="33" height="33" viewBox="0 0 33 33" fill="none" xmlns="http://www.w3.org/2000/svg"><path d="M3.59 16.754c-.018.05-.039.1-.062.148a1.68 1.68 0 01-1.78.903 1.685 1.685 0 01-1.325-1.386 1.67 1.67 0 01.493-1.417 1.66 1.66 0 011.122-.454h.021a1.68 1.68 0 011.456.904c.029.056.054.115.075.174h6.666v-2.172H7.974c-.02.056-.042.111-.069.165a1.677 1.677 0 01-1.779.902A1.686 1.686 0 014.8 13.135a1.67 1.67 0 01.487-1.41 1.66 1.66 0 011.129-.46h.02a1.68 1.68 0 011.47.93c.026.053.048.108.068.165h2.282v-1.642a.744.744 0 01.054-.238.55.55 0 01.257-.255c.099-.048.13-.042.236-.054h1.642V7.886a1.691 1.691 0 01-1.078-1.317 1.67 1.67 0 01.486-1.41c.3-.29.706-.457 1.13-.46h.02a1.68 1.68 0 011.46.911c.222.446.225.993.009 1.442a1.67 1.67 0 01-.932.827v2.292h2.188V3.51a1.674 1.674 0 01-1.078-1.32 1.668 1.668 0 01.48-1.402c.299-.294.71-.464 1.135-.468h.021a1.68 1.68 0 011.46.912c.222.446.225.993.009 1.442-.185.383-.53.676-.932.821v6.676h2.189V7.886a1.692 1.692 0 01-1.079-1.317 1.671 1.671 0 01.479-1.404c.3-.293.714-.463 1.136-.467h.021a1.68 1.68 0 011.46.912c.222.446.225.993.01 1.442-.186.384-.531.68-.933.827v2.292h1.641l.122.014c.117.04.23.097.306.192.051.064.087.14.106.219.009.04.009.082.014.122v1.642h2.286a1.63 1.63 0 011.533-1.095h.022a1.68 1.68 0 011.46.912c.221.446.225.993.008 1.442a1.677 1.677 0 01-1.78.902c-.562-.104-1.046-.532-1.244-1.067h-2.285v2.172h6.67c.086-.238.227-.457.412-.63a1.664 1.664 0 011.115-.448h.02c.614.006 1.205.38 1.47.93a1.67 1.67 0 010 1.424 1.679 1.679 0 01-1.78.903 1.695 1.695 0 01-1.239-1.05h-6.668v2.171h2.286c.086-.24.226-.464.411-.64.299-.285.704-.45 1.122-.454h.021c.61.006 1.198.376 1.465.921.217.444.219.988.004 1.433a1.677 1.677 0 01-1.78.902c-.562-.104-1.046-.532-1.244-1.067h-2.285v1.642a.66.66 0 01-.12.34.538.538 0 01-.19.153c-.1.048-.13.042-.238.054h-1.641v2.288c.397.145.741.441.928.822.217.444.219.988.004 1.433-.355.736-1.304 1.139-2.11.804a1.674 1.674 0 01-.995-1.287 1.67 1.67 0 01.493-1.418 1.66 1.66 0 01.586-.358V22.21h-2.189v6.666c.398.145.741.441.927.822.218.444.22.988.005 1.432-.355.737-1.305 1.14-2.11.805a1.674 1.674 0 01-.995-1.287 1.67 1.67 0 01.472-1.397c.171-.17.38-.298.606-.379V22.21H13.54v2.288c.397.145.741.441.928.822.217.444.218.988.004 1.433-.356.736-1.305 1.14-2.11.804a1.673 1.673 0 01-.995-1.287 1.67 1.67 0 01.493-1.418c.167-.159.368-.28.585-.358V22.21h-1.642a.66.66 0 01-.34-.12.553.553 0 01-.152-.19c-.048-.1-.043-.13-.055-.237V20.02H7.974c-.02.056-.042.111-.069.165a1.677 1.677 0 01-1.779.902A1.686 1.686 0 014.8 19.703a1.672 1.672 0 01.494-1.417c.298-.285.704-.45 1.122-.454h.02a1.68 1.68 0 011.465.921c.028.056.052.114.073.173h2.282v-2.172H3.59zm12.682 13.117c-.36.004-.656.429-.493.778a.568.568 0 00.703.277.567.567 0 00.27-.776.558.558 0 00-.466-.279h-.014zm3.283-4.378c-.36.004-.658.43-.491.782a.567.567 0 00.7.273.567.567 0 00.273-.773.556.556 0 00-.467-.281h-.015zm-6.566 0c-.36.004-.656.429-.493.778a.567.567 0 00.703.277.567.567 0 00.272-.773.557.557 0 00-.467-.281h-.015zM11.35 11.265v9.85h9.85v-9.85h-9.849zm-4.928 7.661c-.36.004-.658.43-.492.781.118.25.444.379.702.274a.567.567 0 00.272-.773.558.558 0 00-.468-.282h-.014zm19.698 0c-.36.004-.658.43-.49.781.117.25.443.379.7.274a.567.567 0 00.272-.773.556.556 0 00-.467-.282h-.015zM2.587 16.111a.51.51 0 00-.058-.184.556.556 0 00-.47-.284h-.014c-.36.004-.658.43-.491.781.118.25.443.379.701.273a.566.566 0 00.332-.458.551.551 0 010-.128zm27.373.116a.485.485 0 00.046.194.566.566 0 00.703.276.566.566 0 00.271-.772.556.556 0 00-.467-.282h-.015c-.282.003-.526.266-.537.549v.035zM6.423 12.36c-.36.003-.658.43-.492.78.118.25.444.38.702.274a.567.567 0 00.272-.773.558.558 0 00-.468-.281h-.014zm19.698 0c-.36.003-.658.43-.49.78.117.25.443.38.7.274a.567.567 0 00.272-.773.556.556 0 00-.467-.281h-.015zm-6.566-6.567c-.36.003-.658.43-.491.78.118.25.443.38.7.274a.566.566 0 00.273-.773.556.556 0 00-.467-.281h-.015zm-6.566 0a.562.562 0 00-.529.42c-.06.249.083.53.32.631.302.128.699-.078.753-.417a.562.562 0 00-.53-.634h-.014zm3.283-4.378c-.36.003-.658.43-.491.78.118.25.443.38.701.274a.567.567 0 00.272-.773.558.558 0 00-.468-.281h-.014z" fill="#3C3C3B" stroke="#3C3C3B" stroke-width=".5"/></svg>
