<svg width="30" height="30" viewBox="0 0 30 30" fill="none" xmlns="http://www.w3.org/2000/svg"><path d="M18.328 15.076h-6.655a.879.879 0 01-.88-.879v-3.462a.88.88 0 01.88-.879h6.655a.88.88 0 01.88.88v3.461a.879.879 0 01-.88.88zm-5.776-1.758h4.898v-1.704h-4.898v1.704z" fill="#3C3C3B"/><path d="M27.363 4.863H2.637A2.64 2.64 0 000 7.5v15.013a2.64 2.64 0 002.637 2.636h24.726A2.64 2.64 0 0030 22.514V7.5a2.64 2.64 0 00-2.637-2.637zm.88 17.65a.88.88 0 01-.88.878H2.637a.88.88 0 01-.88-.878V7.5a.88.88 0 01.88-.879h24.726a.88.88 0 01.88.879v15.013z" fill="#3C3C3B"/><path d="M25.326 21.04c.46 0 .9-.404.879-.878-.022-.477-.386-.88-.88-.88-.459 0-.9.405-.878.88.021.476.386.879.879.879zm-2.958 0c.46 0 .9-.404.879-.878-.021-.477-.386-.88-.879-.88-.46 0-.9.405-.879.88.021.476.386.879.879.879zm2.958-2.328c.46 0 .9-.404.879-.878-.022-.477-.386-.88-.88-.88-.459 0-.9.405-.878.88.021.476.386.878.879.878zm-2.958 0c.46 0 .9-.404.879-.878-.021-.477-.386-.88-.879-.88-.46 0-.9.405-.879.88.021.476.386.878.879.878zm-5.024 1.223h-4.687a.879.879 0 010-1.758h4.687a.879.879 0 010 1.758zm6.503-4.505a2.64 2.64 0 01-2.637-2.636 2.64 2.64 0 012.637-2.636 2.64 2.64 0 012.636 2.636 2.64 2.64 0 01-2.636 2.637zm0-3.515a.88.88 0 000 1.758.88.88 0 000-1.758zM7.63 21.04c.46 0 .9-.404.88-.878-.022-.477-.387-.88-.88-.88-.46 0-.9.405-.878.88.02.476.386.879.878.879zm-2.956 0c.46 0 .9-.404.878-.878-.02-.477-.386-.88-.878-.88-.46 0-.9.405-.88.88.022.476.387.879.88.879zm2.956-2.328c.46 0 .9-.404.88-.878-.022-.477-.387-.88-.88-.88-.46 0-.9.405-.878.88.02.476.386.878.878.878zm-2.956 0c.46 0 .9-.404.878-.878-.02-.477-.386-.88-.878-.88-.46 0-.9.405-.88.88.022.476.387.878.88.878zm1.479-3.282a2.64 2.64 0 01-2.636-2.636 2.64 2.64 0 012.636-2.636 2.64 2.64 0 012.637 2.636 2.64 2.64 0 01-2.637 2.637zm0-3.515a.88.88 0 000 1.758.88.88 0 000-1.758z" fill="#3C3C3B"/></svg>
