<svg width="143" height="25" viewBox="0 0 143 25" fill="none" xmlns="http://www.w3.org/2000/svg"><path fill-rule="evenodd" clip-rule="evenodd" d="M8.167 18.305a1.44 1.44 0 01-.332.526 1.53 1.53 0 01-.53.35 1.594 1.594 0 01-1.26-.04l-3.148 2.995c.16.308.199.66.11.994a1.452 1.452 0 01-.59.827 1.583 1.583 0 01-1.967-.153 1.401 1.401 0 01-.161-1.872c.21-.28.518-.479.869-.563a1.6 1.6 0 011.045.106l3.145-2.994a1.399 1.399 0 01.263-1.663c.146-.144.321-.258.515-.335a1.594 1.594 0 011.221.021c.191.084.362.204.502.353s.247.324.312.514h2.299c.076-.212.202-.404.368-.562.167-.158.37-.277.592-.348v-2.18a1.55 1.55 0 01-.55-.29 1.463 1.463 0 01-.382-.478 1.397 1.397 0 01.323-1.669c.153-.14.335-.248.534-.317a1.597 1.597 0 011.23.077l3.153-3a1.39 1.39 0 01-.113-.994c.088-.334.297-.627.59-.828a1.582 1.582 0 011.966.152 1.4 1.4 0 01.164 1.87c-.21.28-.517.48-.867.564a1.6 1.6 0 01-1.045-.104l-3.162 3.01a1.399 1.399 0 01-.322 1.675c-.154.14-.337.249-.537.318v2.2c.246.08.465.218.639.402a1.409 1.409 0 01.333 1.375 1.44 1.44 0 01-.39.627 1.546 1.546 0 01-.661.368 1.6 1.6 0 01-.766.017 1.554 1.554 0 01-.677-.339 1.45 1.45 0 01-.42-.609l-2.293-.003z" fill="#95B03C"/><path fill-rule="evenodd" clip-rule="evenodd" d="M3.053 7.957c0 .288-.09.569-.258.808a1.513 1.513 0 01-.685.535c-.278.11-.585.138-.881.082a1.552 1.552 0 01-.782-.397A1.433 1.433 0 01.03 8.24a1.388 1.388 0 01.087-.84 1.47 1.47 0 01.562-.652c.251-.16.546-.244.848-.244.405 0 .793.153 1.08.425.286.273.447.642.447 1.027zm0 4.94c0 .287-.09.568-.258.807a1.512 1.512 0 01-.685.535 1.6 1.6 0 01-.882.083 1.551 1.551 0 01-.781-.398 1.433 1.433 0 01-.418-.744 1.388 1.388 0 01.087-.84 1.47 1.47 0 01.563-.651 1.582 1.582 0 011.927.181c.286.272.447.642.447 1.027zm5.19 0c0 .287-.09.568-.257.807a1.513 1.513 0 01-.685.535 1.6 1.6 0 01-.882.083 1.551 1.551 0 01-.782-.398 1.432 1.432 0 01-.418-.744 1.388 1.388 0 01.087-.84 1.47 1.47 0 01.562-.651c.251-.16.547-.245.848-.245.405 0 .793.153 1.08.426.286.272.447.642.447 1.027zm0-4.94c0 .288-.09.569-.257.808A1.513 1.513 0 017.3 9.3a1.6 1.6 0 01-.882.082 1.552 1.552 0 01-.782-.397 1.432 1.432 0 01-.418-.744 1.388 1.388 0 01.087-.84 1.47 1.47 0 01.562-.652 1.58 1.58 0 01.848-.244c.405 0 .793.153 1.08.425.286.273.447.642.447 1.027zm5.168 0c0 .288-.09.568-.257.807a1.513 1.513 0 01-.684.535 1.6 1.6 0 01-.882.084 1.552 1.552 0 01-.781-.397 1.432 1.432 0 01-.419-.744 1.383 1.383 0 01.086-.839 1.47 1.47 0 01.561-.652 1.581 1.581 0 011.927.18c.286.272.447.641.447 1.026h.002zm5.214 4.94c0 .287-.09.568-.257.807a1.512 1.512 0 01-.685.535 1.6 1.6 0 01-.882.083 1.551 1.551 0 01-.782-.398 1.432 1.432 0 01-.417-.744 1.388 1.388 0 01.087-.84 1.47 1.47 0 01.562-.651 1.582 1.582 0 011.925.182c.286.272.446.641.446 1.026h.003zm0 4.94c0 .287-.09.568-.257.807a1.514 1.514 0 01-.685.535 1.6 1.6 0 01-.882.083 1.551 1.551 0 01-.782-.398 1.432 1.432 0 01-.417-.744 1.388 1.388 0 01.087-.84c.115-.265.311-.492.562-.651a1.582 1.582 0 011.926.182c.285.273.446.642.445 1.027l.003-.001zm0 4.94c0 .287-.089.568-.256.807a1.513 1.513 0 01-.685.536 1.59 1.59 0 01-.882.083 1.55 1.55 0 01-.782-.396 1.432 1.432 0 01-.418-.744c-.06-.281-.03-.574.086-.84a1.47 1.47 0 01.561-.652 1.582 1.582 0 011.926.18c.286.272.447.64.447 1.026h.003zm-5.214 0c0 .287-.089.568-.256.807a1.514 1.514 0 01-.684.536c-.28.11-.586.14-.882.083a1.552 1.552 0 01-.782-.396 1.433 1.433 0 01-.419-.743 1.385 1.385 0 01.086-.84 1.47 1.47 0 01.56-.652 1.582 1.582 0 011.927.178c.286.273.447.642.448 1.027h.002zm-5.168 0c0 .287-.09.568-.257.807-.167.24-.406.426-.685.536-.278.11-.585.14-.882.083a1.552 1.552 0 01-.781-.397 1.433 1.433 0 01-.418-.744 1.388 1.388 0 01.086-.84 1.47 1.47 0 01.562-.652 1.582 1.582 0 011.927.18c.286.273.447.642.448 1.027zm-5.19-4.939c0 .287-.09.568-.258.807a1.513 1.513 0 01-.685.535 1.59 1.59 0 01-.882.083 1.552 1.552 0 01-.781-.398 1.433 1.433 0 01-.418-.744 1.388 1.388 0 01.087-.84 1.47 1.47 0 01.563-.651c.25-.16.546-.245.848-.245.405 0 .793.154 1.079.426.286.273.447.642.447 1.027zm95.816 6.118v-1.803a1.179 1.179 0 00-.071-.431.999.999 0 00-.26-.37.839.839 0 00-.307-.184 1.296 1.296 0 00-.413-.067c-.114 0-.227.012-.338.037-.103.026-.2.068-.29.123a1.317 1.317 0 00-.259.202.868.868 0 00-.344-.27 1.168 1.168 0 00-.715-.054 1.053 1.053 0 00-.47.258v-.26h-.72v2.819h.74v-1.704a.611.611 0 01.044-.247.407.407 0 01.115-.157c.046-.04.1-.07.16-.088a.61.61 0 01.35 0 .456.456 0 01.157.088c.05.043.088.097.112.157a.613.613 0 01.044.247v1.704h.74V22.23a.574.574 0 01.045-.234.436.436 0 01.275-.238.617.617 0 01.35 0 .44.44 0 01.27.245c.03.079.045.163.043.247v1.704h.742zm-6.364-1.412c.002.107-.004.215-.017.321a.82.82 0 01-.066.257.386.386 0 01-.151.171.59.59 0 01-.53 0 .385.385 0 01-.152-.171.854.854 0 01-.068-.257 2.742 2.742 0 01-.016-.321 2.846 2.846 0 01.016-.32.847.847 0 01.068-.256.375.375 0 01.151-.168.507.507 0 01.266-.062.52.52 0 01.258.062.38.38 0 01.152.168.807.807 0 01.066.256c.015.106.023.213.023.32zm.74 0v-.323a2.204 2.204 0 00-.036-.323 1.17 1.17 0 00-.089-.294.768.768 0 00-.368-.38.97.97 0 00-.245-.088 1.294 1.294 0 00-.69.037.895.895 0 00-.33.23v-.266h-.725v3.85h.737v-1.28c.087.095.196.17.318.218.128.045.263.066.4.063a1.221 1.221 0 00.525-.118.754.754 0 00.368-.381c.042-.095.072-.195.09-.297a2.23 2.23 0 00.034-.323c.01-.11.012-.223.01-.325zm-4.66 0c0 .097 0 .19-.011.276a.963.963 0 01-.047.233.492.492 0 01-.112.178.46.46 0 01-.15.093.581.581 0 01-.197.032.561.561 0 01-.196-.032.429.429 0 01-.259-.271.958.958 0 01-.047-.233 2.672 2.672 0 01-.01-.276c0-.098 0-.189.01-.274a.94.94 0 01.047-.231.446.446 0 01.455-.3.458.458 0 01.347.124c.05.05.088.11.112.176a.968.968 0 01.047.231c.009.084.013.177.011.274zm.738 0a3.35 3.35 0 00-.027-.451 1.266 1.266 0 00-.102-.354 1.011 1.011 0 00-.206-.288 1.126 1.126 0 00-.528-.294 1.586 1.586 0 00-.784 0 1.1 1.1 0 00-.729.583 1.184 1.184 0 00-.103.353c-.02.15-.03.3-.028.45-.001.153.008.305.028.456a1.2 1.2 0 00.103.356c.05.106.12.203.206.287a1.069 1.069 0 00.522.295c.127.033.258.05.389.048.131.002.262-.014.388-.048a1.087 1.087 0 00.836-.939c.023-.15.035-.302.037-.454h-.002zm-3.596 1.412v-.595h-.285a.27.27 0 01-.2-.064.262.262 0 01-.06-.19v-3.004h-.737v3.047c-.001.1.016.2.049.295a.716.716 0 00.154.257c.073.08.165.144.269.185.123.048.255.072.388.069h.422zm-3.403-1.672H81.2a.71.71 0 01.031-.206.775.775 0 01.038-.097.499.499 0 01.272-.253.646.646 0 01.444 0 .485.485 0 01.273.253.904.904 0 01.036.097c.01.031.017.063.02.095a.698.698 0 01.012.11zm.729.482v-.313a1.587 1.587 0 00-.087-.537 1.244 1.244 0 00-.25-.428 1.12 1.12 0 00-.405-.281 1.441 1.441 0 00-.549-.102c-.18-.002-.36.03-.526.096a1.107 1.107 0 00-.407.278 1.27 1.27 0 00-.259.453 1.922 1.922 0 00-.093.616c-.004.198.022.396.075.589.042.148.111.287.204.412.084.106.188.195.306.264.116.065.242.112.373.14.135.027.273.04.412.039.155.002.31-.015.462-.05.126-.033.246-.084.356-.151a1.78 1.78 0 00.306-.247l-.448-.417a1.152 1.152 0 01-.186.148.726.726 0 01-.208.088 1.2 1.2 0 01-.277.03.728.728 0 01-.352-.083.553.553 0 01-.22-.222.689.689 0 01-.076-.324l1.849.002zm-3.553-1.63h-.777l-.597 1.743-.603-1.742h-.777l1.092 2.819h.58l1.082-2.82zm-4.453 1.148h-1.125a.937.937 0 01.03-.206.522.522 0 01.145-.248.493.493 0 01.165-.102.64.64 0 01.443 0 .484.484 0 01.273.253.675.675 0 01.058.192c.008.033.01.071.013.11h-.002zm.727.482v-.313a1.62 1.62 0 00-.085-.537 1.244 1.244 0 00-.251-.428 1.12 1.12 0 00-.406-.281 1.44 1.44 0 00-.548-.102 1.416 1.416 0 00-.526.096 1.111 1.111 0 00-.408.278 1.268 1.268 0 00-.259.453 1.922 1.922 0 00-.093.616c-.003.198.023.396.076.589.042.148.111.287.205.412.083.106.186.195.304.264.116.065.243.112.374.14.135.027.273.04.41.039.157.002.313-.015.464-.05a1.28 1.28 0 00.356-.151c.112-.072.214-.154.307-.247l-.45-.417a1.04 1.04 0 01-.186.148.693.693 0 01-.208.088c-.09.02-.183.03-.276.03a.719.719 0 01-.352-.083.545.545 0 01-.22-.222.673.673 0 01-.076-.324l1.848.002zm-4.739-.222c.002.107-.004.215-.016.321a.893.893 0 01-.07.257.39.39 0 01-.153.171.525.525 0 01-.267.063.514.514 0 01-.259-.063.375.375 0 01-.151-.171.853.853 0 01-.07-.257 2.764 2.764 0 01-.015-.321c0-.107.005-.214.016-.32a.845.845 0 01.069-.256.375.375 0 01.151-.168.505.505 0 01.259-.062.525.525 0 01.267.062c.07.04.126.098.16.168.036.082.06.168.07.256.01.106.015.213.012.32h-.003zm.74 1.412v-3.853h-.74v1.283a.854.854 0 00-.32-.218 1.143 1.143 0 00-.401-.063c-.094 0-.188.01-.28.03-.086.02-.169.05-.247.09a.776.776 0 00-.368.381 1.269 1.269 0 00-.089.295 2.49 2.49 0 00-.034.323c0 .108-.007.216-.006.322.001.106 0 .215.006.326.004.108.016.216.034.322.018.102.048.202.09.297.04.092.099.175.172.247a.833.833 0 00.196.134 1.234 1.234 0 00.53.118 1.23 1.23 0 00.285-.028.844.844 0 00.449-.269v.265l.722-.002zm-6.849-2.97a.28.28 0 01-.067.18.685.685 0 01-.166.145l-.03.02-.07.046-.07.042a2.317 2.317 0 01-.129-.15.788.788 0 01-.096-.143.306.306 0 010-.3.252.252 0 01.112-.112.37.37 0 01.185-.042.362.362 0 01.181.042.27.27 0 01.115.112.31.31 0 01.038.16h-.003zm.195 2.137a.975.975 0 01-.284.172.903.903 0 01-.32.056.713.713 0 01-.31-.07.517.517 0 01-.303-.472.551.551 0 01.194-.425c.066-.06.138-.116.215-.164l.808.903zm1.682.833l-.726-.817a1.44 1.44 0 00.312-.525 2.43 2.43 0 00.12-.67h-.698a1.542 1.542 0 01-.059.378.892.892 0 01-.146.298l-.682-.769.088-.057.096-.067.075-.054.03-.021a1.38 1.38 0 00.22-.185.671.671 0 00.195-.487.867.867 0 00-.486-.79 1.246 1.246 0 00-.55-.123 1.36 1.36 0 00-.58.117.859.859 0 00-.371.316.883.883 0 00-.09.724c.025.077.059.152.1.222.04.064.083.127.13.186.046.057.092.106.13.15-.09.058-.177.12-.26.186a1.598 1.598 0 00-.233.23c-.07.085-.126.18-.168.28a.92.92 0 00-.063.338c-.007.217.044.432.147.625a.98.98 0 00.445.403c.234.1.488.148.743.14.128.001.256-.011.381-.037a1.393 1.393 0 00.504-.217l.161-.123.296.335.94.014zm-6.393 0v-1.824a1.27 1.27 0 00-.063-.411.85.85 0 00-.497-.54 1.15 1.15 0 00-.43-.076 1.011 1.011 0 00-.71.292v-1.294h-.738v3.853h.738V22.23a.595.595 0 01.043-.234.399.399 0 01.101-.147.424.424 0 01.158-.091.56.56 0 01.173-.026.66.66 0 01.175.025.42.42 0 01.265.238.56.56 0 01.043.235v1.725h.742zm-3.754-.351l-.493-.466a.857.857 0 01-.15.123.598.598 0 01-.152.073.66.66 0 01-.411-.024.525.525 0 01-.184-.137.619.619 0 01-.13-.254 1.475 1.475 0 01-.04-.37 1.493 1.493 0 01.04-.37.62.62 0 01.13-.246.513.513 0 01.42-.184.556.556 0 01.329.095.853.853 0 01.148.123l.5-.475a1.22 1.22 0 00-.434-.287 1.437 1.437 0 00-.544-.093 1.65 1.65 0 00-.364.04 1.383 1.383 0 00-.357.138 1.114 1.114 0 00-.307.261c-.098.124-.17.264-.215.413a2.161 2.161 0 000 1.176 1.146 1.146 0 00.522.677c.11.063.231.11.357.14.12.026.242.04.364.039.186.003.37-.029.544-.094.165-.07.313-.17.435-.298h-.008zm-3.137-2.235a1.013 1.013 0 00-.207-.156.814.814 0 00-.227-.083 1.155 1.155 0 00-.562.016 1.1 1.1 0 00-.26.11.724.724 0 00-.186.15v-.27h-.722v2.819h.74v-1.7a.605.605 0 01.042-.23.471.471 0 01.264-.257.458.458 0 01.17-.03.6.6 0 01.159.017.532.532 0 01.234.15l.555-.536zm-4.428 1.547a.803.803 0 01-.025.218.286.286 0 01-.084.14.46.46 0 01-.13.088.523.523 0 01-.15.037c-.06.008-.12.01-.182.01a.508.508 0 01-.322-.09.294.294 0 01-.104-.235.276.276 0 01.025-.13.29.29 0 01.081-.104c.09-.061.2-.091.31-.085h.585l-.004.151zm.738 1.039V22.1a.872.872 0 00-.068-.408.912.912 0 00-.25-.337c-.214-.166-.527-.247-.943-.247a2.37 2.37 0 00-.432.034c-.12.022-.236.063-.34.123a1.253 1.253 0 00-.297.234l.472.439a.836.836 0 01.152-.136.546.546 0 01.176-.074c.079-.017.16-.025.24-.023.15-.013.3.025.423.107a.392.392 0 01.13.336v.14h-.7a1.477 1.477 0 00-.45.066.882.882 0 00-.314.175.716.716 0 00-.187.26.833.833 0 00-.061.317c-.001.12.02.238.062.35.04.106.102.203.182.284.09.084.2.148.319.186.238.068.49.08.734.035a.87.87 0 00.43-.243v.247l.722-.01zm-4.386-1.672h-1.125a.71.71 0 01.031-.206.527.527 0 01.145-.248.485.485 0 01.165-.102.646.646 0 01.444 0 .484.484 0 01.273.253.925.925 0 01.036.097c.01.031.017.063.02.095.007.037.01.074.011.11zm.728.482v-.313a1.62 1.62 0 00-.086-.537 1.224 1.224 0 00-.25-.428 1.103 1.103 0 00-.405-.281 1.445 1.445 0 00-.549-.102c-.18-.002-.36.03-.526.096a1.107 1.107 0 00-.407.278 1.267 1.267 0 00-.259.453 1.895 1.895 0 00-.093.616 2.07 2.07 0 00.075.589 1.083 1.083 0 00.51.676c.116.065.242.112.373.14.135.027.273.04.411.039.156.002.312-.015.463-.05.126-.033.246-.084.356-.151.111-.072.214-.154.306-.247l-.449-.417a1.091 1.091 0 01-.185.148.724.724 0 01-.208.088 1.2 1.2 0 01-.276.03.729.729 0 01-.353-.083.545.545 0 01-.22-.222.689.689 0 01-.076-.324l1.848.002zm-3.79.303a.745.745 0 00-.22-.572 1.075 1.075 0 00-.66-.256l-.467-.043a.523.523 0 01-.195-.05.221.221 0 01-.09-.09.249.249 0 01-.022-.103c0-.048.015-.094.044-.133a.296.296 0 01.138-.099.648.648 0 01.24-.04c.086 0 .172.005.258.017.081.01.16.03.237.059a.63.63 0 01.197.115l.455-.439c-.093-.083-.2-.15-.317-.198a1.593 1.593 0 00-.38-.104 2.85 2.85 0 00-.434-.028c-.146 0-.292.019-.432.058a1.188 1.188 0 00-.365.172.822.822 0 00-.252.281.875.875 0 00.012.812c.07.112.173.2.298.254.145.063.301.1.46.11l.467.044a.418.418 0 01.243.085.224.224 0 01.069.175.208.208 0 01-.046.134.317.317 0 01-.12.091.686.686 0 01-.167.05 1.528 1.528 0 01-.441-.001 1.096 1.096 0 01-.275-.075.883.883 0 01-.259-.172l-.483.46a1.378 1.378 0 00.597.337c.106.028.214.047.324.056.113.01.227.015.341.013.166.001.33-.017.491-.055a1.3 1.3 0 00.4-.17.84.84 0 00.268-.287.847.847 0 00.087-.408zm-4.373-.785H36.88c0-.04 0-.078.01-.111a.704.704 0 01.06-.192.5.5 0 01.27-.253.646.646 0 01.445 0 .485.485 0 01.273.253.675.675 0 01.058.192c.005.033.008.071.01.11zm.727.482v-.313a1.62 1.62 0 00-.085-.537 1.246 1.246 0 00-.251-.428 1.12 1.12 0 00-.406-.281 1.441 1.441 0 00-.548-.102 1.41 1.41 0 00-.526.096 1.102 1.102 0 00-.408.278 1.247 1.247 0 00-.259.453 1.896 1.896 0 00-.094.616c-.003.198.023.396.076.589.041.148.11.288.205.412.083.106.186.196.305.264.116.065.242.112.373.14.135.027.273.04.41.039.156.002.312-.015.463-.05a1.34 1.34 0 00.357-.151c.111-.072.214-.154.307-.247l-.448-.416a1.092 1.092 0 01-.187.148.7.7 0 01-.207.088c-.09.02-.183.03-.277.03a.73.73 0 01-.353-.082.544.544 0 01-.219-.222.674.674 0 01-.076-.324h1.848zm70.843 1.19v-.595h-.267a.258.258 0 01-.194-.066.261.261 0 01-.062-.188v-1.355h.518v-.536h-.518v-.833h-.739v.833h-.313v.536h.313v1.396c0 .1.017.199.049.294a.74.74 0 00.421.442c.123.049.255.072.388.07l.404.002zm-2.863 0v-1.803a1.615 1.615 0 00-.024-.294.98.98 0 00-.277-.513.867.867 0 00-.3-.178 1.187 1.187 0 00-.669-.034.969.969 0 00-.469.26v-.26h-.722v2.818h.739v-1.7a.631.631 0 01.044-.247.411.411 0 01.115-.157.45.45 0 01.161-.088.604.604 0 01.349 0 .433.433 0 01.271.247.63.63 0 01.043.246v1.704l.739-.001zm-4.607-1.672h-1.12c0-.04 0-.078.01-.111a.773.773 0 01.021-.095.857.857 0 01.038-.097.485.485 0 01.273-.253.588.588 0 01.221-.04.58.58 0 01.387.143.505.505 0 01.108.15.833.833 0 01.058.192c.003.037.005.074.004.11zm.727.482v-.313a1.637 1.637 0 00-.085-.537 1.257 1.257 0 00-.251-.428 1.13 1.13 0 00-.404-.281 1.45 1.45 0 00-.55-.102 1.41 1.41 0 00-.526.096 1.125 1.125 0 00-.667.73c-.065.2-.097.408-.094.617a2.06 2.06 0 00.076.589c.041.148.11.288.205.412.082.106.186.195.304.264.116.065.242.111.374.14.135.027.273.04.412.039.155.002.311-.015.462-.05.126-.033.246-.084.356-.151.111-.072.214-.154.307-.247l-.45-.417a1.031 1.031 0 01-.185.148.724.724 0 01-.208.088c-.091.02-.184.03-.277.03a.717.717 0 01-.352-.083.54.54 0 01-.22-.222.683.683 0 01-.074-.319l1.847-.003zM35.32 21.37a1.05 1.05 0 00-.207-.156.824.824 0 00-.228-.083 1.249 1.249 0 00-.258-.026c-.198 0-.392.052-.56.152a.741.741 0 00-.185.15v-.27h-.725v2.819h.74v-1.7a.625.625 0 01.037-.226.466.466 0 01.11-.161.466.466 0 01.325-.126.514.514 0 01.286.075c.04.028.076.06.111.093l.554-.541zm2.574-11.734h-6.731v6.407h6.73V9.636zm74.505.073h6.668v6.338h-6.668V9.709zm-3.459 9.544h10.127v1.621h-6.71v3.188h10.078V6.402H108.94v12.85zm20.596.107V6.43h13.463v3.204h-10.097v6.407h10.097v3.203l-13.463.116zm-1.927-17.757h-3.366v3.203h3.366V1.603zm0 17.635h-3.366V6.424h3.366v12.814zm-23.964-9.616h-6.718v6.425h6.718V9.622zM93.559 6.43h13.462v12.823H93.609V6.43h-.05zm-5.19 12.814h3.365V0h-3.366v19.244zM83.34 9.251H76.6v2.367h6.74V9.25zM73.232 19.254V6.402h13.477v8.062H76.6v1.583h6.702v3.203l-10.07.004zm-11.46-.01l-3.366.029V6.439H71.88v3.197H61.772v9.608zm-18.704.029V6.402h3.365v9.645h6.752v-9.61h3.366V19.25l-13.483.023zm-11.91 4.79h-3.365V6.443h13.468v12.828H31.164l-.005 4.792z" fill="#3C3C3B"/></svg>
